<?xml version="1.0" encoding="UTF-8" standalone="no"?><svg xmlns="http://www.w3.org/2000/svg" xmlns:xlink="http://www.w3.org/1999/xlink" fill="#545454" height="128" preserveAspectRatio="xMidYMid meet" version="1" viewBox="4.7 0.0 118.3 128.0" width="118.3" zoomAndPan="magnify"><g id="change1_1"><path d="M20.5265503,62c-6.31604,0-11.078186,3.0097656-11.078186,7s4.762146,7,11.078186,7 c6.3161011,0,11.0782471-3.0097656,11.0782471-7S26.8426514,62,20.5265503,62z M20.5265503,72 c-4.237915,0-7.0497437-1.8056641-7.0497437-3s2.8118286-3,7.0497437-3c4.2379761,0,7.0498047,1.8056641,7.0498047,3 S24.7645264,72,20.5265503,72z" fill="inherit"/></g><g id="change1_2"><path d="M96.8151245,68.5830078c-6.4016113,0-11.2296753,3.0458984-11.2296753,7.0839844S90.4135132,82.75,96.8151245,82.75 c6.4016724,0,11.2296753-3.0449219,11.2296753-7.0830078S103.2167969,68.5830078,96.8151245,68.5830078z M96.8151245,78.75 c-4.3293457,0-7.2012329-1.8554688-7.2012329-3.0830078s2.8718872-3.0839844,7.2012329-3.0839844 c4.3294067,0,7.2012329,1.8564453,7.2012329,3.0839844S101.1445313,78.75,96.8151245,78.75z" fill="inherit"/></g><g id="change1_3"><path d="M111.921814,114c-6.3161011,0-11.0782471,3.0097656-11.0782471,7s4.762146,7,11.0782471,7 C118.237854,128,123,124.9902344,123,121S118.237854,114,111.921814,114z M111.921814,124 c-4.2379761,0-7.0498047-1.8056641-7.0498047-3s2.8118286-3,7.0498047-3c4.237915,0,7.0497437,1.8056641,7.0497437,3 S116.159729,124,111.921814,124z" fill="inherit"/></g><g id="change1_4"><path d="M61.9147949,107.6934814l35.2553101,10.8574829c0.3777466-1.305542,1.0559082-2.508606,1.9825439-3.5774536 l-35.2553711-10.8575439C63.5195313,105.4215088,62.8414307,106.6246338,61.9147949,107.6934814z" fill="inherit"/></g><g id="change1_5"><path d="M49.1456299,94.6669922c-6.3161011,0-11.0782471,3.0097656-11.0782471,7s4.762146,7,11.0782471,7 c6.31604,0,11.078186-3.0097656,11.078186-7S55.4616699,94.6669922,49.1456299,94.6669922z M49.1456299,104.6669922 c-4.2379761,0-7.0498047-1.8056641-7.0498047-3s2.8118286-3,7.0498047-3c4.237915,0,7.0497437,1.8056641,7.0497437,3 S53.3835449,104.6669922,49.1456299,104.6669922z" fill="inherit"/></g><g id="change1_6"><path d="M40.4525146,41.4727173c0.0245972-0.3018188,0.06427-0.6082153,0.1425171-0.9209595l0.9022217-3.598999 c-4.9169312,1.2976074-8.633606,3.3776855-8.633606,6.5892334c0,6.6962891,16.1433105,8.4824219,25.6813354,8.4824219 s25.6812744-1.7861328,25.6812744-8.4824219c0-3.2116699-3.7169189-5.2918091-8.6340332-6.5893555l0.9017334,3.5991211 c0.0839233,0.3346558,0.1074219,0.6306763,0.1077881,0.9100342c2.1494751,0.7380371,3.3892212,1.5061035,3.5891724,2.0802002 c-0.5379639,1.5419922-8.5545044,4.4824219-21.6459351,4.4824219c-13.1858521,0-21.2230835-2.9833984-21.6567993-4.4492188 C37.0504761,43.0003052,38.2816772,42.2216187,40.4525146,41.4727173z" fill="inherit"/></g><g id="change1_7"><path d="M48.060791,33.609375c-0.9254761,0-1.730957,0.6259766-1.9542236,1.5175781l-1.6011353,6.390625 c-0.1504517,0.5966797-0.0147705,1.2294922,0.3668213,1.7138672C45.2548828,43.7167969,45.8400269,44,46.4596558,44h24.1706543 c0.6195679,0,1.2047729-0.2832031,1.5873413-0.7685547c0.3815918-0.484375,0.517334-1.1171875,0.3668823-1.7138672 l-1.6011353-6.390625c-0.2232666-0.8916016-1.0287476-1.5175781-1.9542847-1.5175781h-1.1048584 c-1.5308838-2.0184937-2.3078613-5.1585083-2.3078613-9.3613281c0-4.8300781,1.0238037-8.2587891,3.0419922-10.1914063 c0.592041-0.5654297,0.7779541-1.4316406,0.4700928-2.1875c-0.3068848-0.7568359-1.0464478-1.2519531-1.8676758-1.2519531 h-6.7015991V8.6660156h2.8324585c1.1123657,0,2.0142212-0.8955078,2.0142212-2s-0.9018555-2-2.0142212-2h-2.8324585V2 c0-1.1044922-0.9019165-2-2.0142212-2c-1.1123657,0-2.0142212,0.8955078-2.0142212,2v2.6660156h-2.8325195 c-1.1123047,0-2.0142212,0.8955078-2.0142212,2s0.9019165,2,2.0142212,2h2.8325195v1.9511719h-6.7015991 c-0.821228,0-1.5608521,0.4951172-1.8676758,1.2519531c-0.3078613,0.7558594-0.1219482,1.6220703,0.4700928,2.1875 c2.0181274,1.9326172,3.0419922,5.3613281,3.0419922,10.1914063c0,4.2028198-0.7769775,7.3428345-2.3078613,9.3613281H48.060791z M63.3927002,14.6171875c-1.2107544,2.5048828-1.8047485,5.6923828-1.8047485,9.6308594 c0,3.8013916,0.5591431,6.897644,1.6863403,9.3613281h-9.4586182c1.1271362-2.4636841,1.6863403-5.5599365,1.6863403-9.3613281 c0-3.9384766-0.5940552-7.1259766-1.8047485-9.6308594H63.3927002z M67.4545288,37.609375L68.0535278,40H49.036438 l0.598938-2.390625H67.4545288z" fill="inherit"/></g><g id="change1_8"><path d="M17.0882568,88.9814453c-0.6107788-0.921875-1.862793-1.1767578-2.7902222-0.5673828l-3.0872192,2.0230103 l-3.0872192-2.0230103c-0.9274292-0.609375-2.1784668-0.3544922-2.7902222,0.5673828 c-0.6127319,0.921875-0.3569946,2.1621094,0.5714111,2.7705078l1.6497192,1.0810547l-1.6497192,1.0810547 c-0.9284058,0.6083984-1.1841431,1.8486328-0.5714111,2.7705078c0.3865356,0.5830078,1.0287476,0.8984375,1.6828003,0.8984375 c0.3806152,0,0.7661133-0.1064453,1.1074219-0.3310547l3.0872192-2.0230103l3.0872192,2.0230103 c0.3412476,0.2246094,0.7268066,0.3310547,1.1074219,0.3310547c0.6540527,0,1.2962646-0.3154297,1.6828003-0.8984375 c0.6127319-0.921875,0.3569946-2.1621094-0.5714111-2.7705078l-1.6497192-1.0810547l1.6497192-1.0810547 C17.4452515,91.1435547,17.7009888,89.9033203,17.0882568,88.9814453z" fill="inherit"/></g><g id="change1_9"><path d="M117.6310425,91.4814453c-0.6127319-0.921875-1.8607788-1.1777344-2.7902222-0.5673828l-3.086731,2.0229492 l-3.086731-2.0229492c-0.9274292-0.6103516-2.1784668-0.3544922-2.7902222,0.5673828 c-0.6126709,0.921875-0.3569946,2.1621094,0.5714722,2.7705078l1.6494751,1.0810547l-1.6494751,1.0810547 c-0.9284668,0.6083984-1.1841431,1.8486328-0.5714722,2.7705078c0.3875122,0.5830078,1.0287476,0.8984375,1.6828003,0.8984375 c0.3806152,0,0.7661743-0.1064453,1.1074219-0.3310547l3.086731-2.0229492l3.086731,2.0229492 c0.3413086,0.2246094,0.7268066,0.3310547,1.1074219,0.3310547c0.6540527,0,1.2962646-0.3154297,1.6828003-0.8984375 c0.6127319-0.921875,0.3569946-2.1621094-0.5714111-2.7705078l-1.6495361-1.0810547l1.6495361-1.0810547 C117.9880371,93.6435547,118.2437744,92.4033203,117.6310425,91.4814453z" fill="inherit"/></g><g id="change1_10"><path d="M92.7050781,51.9814453c-0.6117554-0.921875-1.8617554-1.1767578-2.7902222-0.5673828l-3.086731,2.0229492 l-3.086731-2.0229492c-0.9264526-0.609375-2.1784668-0.3544922-2.7902222,0.5673828 c-0.6126709,0.921875-0.3569946,2.1621094,0.5714722,2.7705078l1.6494751,1.0810547l-1.6494751,1.0810547 c-0.9284668,0.6083984-1.1841431,1.8486328-0.5714722,2.7705078c0.3875122,0.5830078,1.0287476,0.8984375,1.6828003,0.8984375 c0.3806152,0,0.7661743-0.1064453,1.1074219-0.3310547l3.086731-2.0229492l3.086731,2.0229492 c0.3413086,0.2246094,0.7268066,0.3310547,1.1074219,0.3310547c0.6540527,0,1.2962646-0.3154297,1.6828003-0.8984375 c0.6127319-0.921875,0.3569946-2.1621094-0.5714111-2.7705078l-1.6495361-1.0810547l1.6495361-1.0810547 C93.0620728,54.1435547,93.3178101,52.9033203,92.7050781,51.9814453z" fill="inherit"/></g><g id="change1_11"><path d="M86.74823,84.1195068c-1.28302-0.7991943-2.3651123-1.7564087-3.2054443-2.8393555L59.8498535,93.7632446 c1.194519,0.8569946,2.1705322,1.8703003,2.9054565,2.9973755L86.74823,84.1195068z" fill="inherit"/></g><g id="change1_12"><path d="M81.5947266,76.2463379c-0.0125732-0.1931763-0.0376587-0.3831177-0.0376587-0.5793457 c0-1.1897583,0.2332153-2.3241577,0.6688232-3.3822632l-46.6351929-3.9406128 C35.6068115,68.5622559,35.6332397,68.777832,35.6332397,69c0,1.1626587-0.2253418,2.2715454-0.6439209,3.3078613 L81.5947266,76.2463379z" fill="inherit"/></g><g id="change1_13"><path d="M43.8276367,54.7369385l-12.6880493,6.2991943c1.2144775,0.8565063,2.2121582,1.8699951,2.9613037,3.0024414 l16.8014526-8.3414307C48.6653442,55.5047607,46.2337036,55.2022705,43.8276367,54.7369385z" fill="inherit"/></g></svg>