<?xml version="1.0" encoding="UTF-8" standalone="no"?><svg xmlns="http://www.w3.org/2000/svg" xmlns:xlink="http://www.w3.org/1999/xlink" clip-rule="evenodd" fill="#545454" fill-rule="evenodd" height="155" image-rendering="optimizeQuality" preserveAspectRatio="xMidYMid meet" shape-rendering="geometricPrecision" text-rendering="geometricPrecision" version="1" viewBox="10.2 8.2 153.1 155.0" width="153.1" zoomAndPan="magnify"><g><g id="change1_1"><path d="M153.84 159.957c-0.9227,0 -1.6712,-0.7485 -1.6712,-1.6711l0.0001 -6.3395c0,-3.1578 -2.5703,-5.7304 -5.7293,-5.7304l-5.9888 0c-3.1594,0 -5.7296,2.5726 -5.7296,5.7304l0 6.3395c0,0.9226 -0.7482,1.6711 -1.6712,1.6711 -0.9229,0 -1.671,-0.7485 -1.671,-1.6711l0 -6.3395c0,-5.0028 4.0694,-9.0725 9.0718,-9.0725l5.9888 -0.0001c5.002,0 9.0714,4.0698 9.0714,9.0726l0.0001 6.3395c0,0.9226 -0.7482,1.6711 -1.6711,1.6711z"/><path d="M143.445 133.363c-2.6222,0 -4.7556,2.134 -4.7556,4.7555 0.0001,2.625 2.1334,4.7557 4.7555,4.7557 2.6219,-0.0001 4.7553,-2.1307 4.7553,-4.7557 0.0001,-2.6215 -2.1334,-4.7555 -4.7552,-4.7555zm0 12.8533c-4.4652,0 -8.0978,-3.6311 -8.0978,-8.0978 0,-4.4631 3.6325,-8.0941 8.0977,-8.0941 4.465,-0.0001 8.0975,3.631 8.0975,8.0941 0,4.4667 -3.6325,8.0978 -8.0974,8.0978z"/><path d="M131.813 131.81c-3.1068,3.1054 -4.8179,7.2377 -4.8179,11.6313 0,4.3935 1.7111,8.5224 4.8179,11.6313 3.1071,3.1055 7.2382,4.8183 11.6323,4.8183 4.394,0 8.5246,-1.7128 11.6318,-4.8183 3.1072,-3.1089 4.8182,-7.2378 4.8182,-11.6313 0.0001,-4.3936 -1.7111,-8.5259 -4.8182,-11.6313 -6.4138,-6.4163 -16.85,-6.4163 -23.2641,0l0 0zm11.6324 31.423c-5.2868,0 -10.2573,-2.0609 -13.9956,-5.7965 -3.7379,-3.7391 -5.7969,-8.7104 -5.7969,-13.9952 0,-5.2882 2.0589,-10.2596 5.7969,-13.9951l0.0001 0c7.7172,-7.7184 20.2735,-7.7184 27.9903,0 3.7384,3.7355 5.7973,8.7069 5.7973,13.9951 0,5.2848 -2.0589,10.2561 -5.7973,13.9952 -3.7379,3.7356 -8.7083,5.7965 -13.9948,5.7965z"/><path d="M153.84 46.4638c-0.9227,0 -1.6712,-0.745 -1.6712,-1.6711l0.0001 -6.3397c0,-3.1576 -2.5703,-5.7303 -5.7293,-5.7303l-5.9888 -0.0001c-3.1594,0 -5.7296,2.5729 -5.7296,5.7305l0 6.3395c0,0.9261 -0.7482,1.6712 -1.6712,1.6712 -0.9229,0 -1.671,-0.745 -1.671,-1.6711l0 -6.3397c0,-5.0027 4.0694,-9.069 9.0718,-9.069l5.9888 0c5.002,0 9.0714,4.0663 9.0714,9.0691l0.0001 6.3395c0,0.9261 -0.7482,1.6712 -1.6711,1.6712z"/><path d="M143.445 19.8729c-2.6222,0 -4.7556,2.1306 -4.7556,4.7556 0.0001,2.6215 2.1334,4.7555 4.7555,4.7555 2.6219,0 4.7553,-2.134 4.7553,-4.7555 0.0001,-2.625 -2.1334,-4.7556 -4.7552,-4.7556zm0 12.8497c-4.4652,0 -8.0978,-3.631 -8.0978,-8.0941 0,-4.4667 3.6325,-8.0977 8.0977,-8.0977 4.465,-0.0001 8.0975,3.631 8.0975,8.0977 0,4.4631 -3.6325,8.0942 -8.0974,8.0941z"/><path d="M131.813 18.3168c-3.1068,3.1053 -4.8179,7.2377 -4.8179,11.6313 0,4.3934 1.7111,8.5259 4.8179,11.6312 3.1071,3.109 7.2382,4.8183 11.6323,4.8183 4.394,-0.0001 8.5246,-1.7093 11.6318,-4.8183 3.1072,-3.1054 4.8182,-7.2377 4.8182,-11.6312 0.0001,-4.3937 -1.7111,-8.526 -4.8182,-11.6313 -6.4138,-6.4163 -16.85,-6.4163 -23.2641,0l0 0zm11.6324 31.4229c-5.2868,0 -10.2573,-2.0575 -13.9956,-5.7965 -3.7379,-3.739 -5.7969,-8.7104 -5.7969,-13.9951 0,-5.2882 2.0589,-10.2562 5.7969,-13.9952l0.0001 -0.0001c7.7172,-7.7183 20.2735,-7.7182 27.9903,0.0001 3.7384,3.739 5.7973,8.707 5.7973,13.9952 0,5.2847 -2.0589,10.2562 -5.7973,13.9951 -3.7379,3.739 -8.7083,5.7965 -13.9948,5.7965z"/><path d="M40.3475 159.957c-0.9229,0 -1.6712,-0.7485 -1.6712,-1.6711l0 -6.3395c0,-3.1578 -2.5702,-5.7304 -5.7296,-5.7304l-5.9888 0c-3.1593,0 -5.7293,2.5726 -5.7293,5.7304l0 6.3395c0,0.9226 -0.7484,1.6711 -1.6713,1.6711 -0.9228,0 -1.6709,-0.7485 -1.6709,-1.6711l0 -6.3395c0,-5.0028 4.0694,-9.0725 9.0715,-9.0725l5.9888 -0.0001c5.0022,0 9.0718,4.0698 9.0718,9.0726l0 6.3395c0,0.9226 -0.7481,1.6711 -1.671,1.6711z"/><path d="M29.9522 133.363c-2.622,0 -4.7552,2.134 -4.7552,4.7555 0,2.625 2.1332,4.7557 4.7552,4.7557 2.6222,-0.0001 4.7555,-2.1307 4.7555,-4.7557 0,-2.6215 -2.1333,-4.7555 -4.7555,-4.7555zm0 12.8533c-4.4649,0 -8.0974,-3.6311 -8.0974,-8.0978 0,-4.4631 3.6325,-8.0941 8.0974,-8.0941 4.4651,-0.0001 8.0976,3.631 8.0976,8.0941 0,4.4667 -3.6326,8.0978 -8.0976,8.0978z"/><path d="M18.3202 131.81c-3.1069,3.1054 -4.8181,7.2377 -4.8181,11.6313 0,4.3935 1.7112,8.5224 4.8181,11.6313 3.107,3.1055 7.2382,4.8183 11.632,4.8183 4.394,0 8.5251,-1.7128 11.6321,-4.8183 6.4139,-6.4162 6.4139,-16.8499 0,-23.2626 -6.4144,-6.4163 -16.8504,-6.4163 -23.2641,0l0 0zm11.632 31.423c-5.2866,0 -10.257,-2.0609 -13.9952,-5.7965 -3.7383,-3.7391 -5.7971,-8.7104 -5.7971,-13.9952 0,-5.2882 2.0588,-10.2596 5.7971,-13.9951l0 0c7.7169,-7.7184 20.2737,-7.7184 27.9905,0 7.717,7.7147 7.717,20.2721 0,27.9903 -3.7382,3.7356 -8.7086,5.7965 -13.9953,5.7965z"/><path d="M40.3475 46.4638c-0.9229,0 -1.6712,-0.745 -1.6712,-1.6711l0 -6.3397c0,-3.1576 -2.5702,-5.7303 -5.7296,-5.7303l-5.9888 -0.0001c-3.1593,0 -5.7293,2.5729 -5.7293,5.7305l0 6.3395c0,0.9261 -0.7484,1.6712 -1.6713,1.6712 -0.9228,0 -1.6709,-0.745 -1.6709,-1.6711l0 -6.3397c0,-5.0027 4.0694,-9.069 9.0715,-9.069l5.9888 0c5.0022,0 9.0718,4.0663 9.0718,9.0691l0 6.3395c0,0.9261 -0.7481,1.6712 -1.671,1.6712z"/><path d="M29.9522 19.8729c-2.622,0 -4.7552,2.1306 -4.7552,4.7556 0,2.6215 2.1332,4.7555 4.7552,4.7555 2.6222,0 4.7555,-2.134 4.7555,-4.7555 0,-2.625 -2.1333,-4.7556 -4.7555,-4.7556zm0 12.8497c-4.4649,0 -8.0974,-3.631 -8.0974,-8.0941 0,-4.4667 3.6325,-8.0977 8.0974,-8.0977 4.4651,-0.0001 8.0976,3.631 8.0976,8.0977 0,4.4631 -3.6326,8.0942 -8.0976,8.0941z"/><path d="M18.3202 18.3168c-3.1069,3.1053 -4.8181,7.2377 -4.8181,11.6313 0,4.3934 1.7112,8.5259 4.8181,11.6312 3.107,3.109 7.2382,4.8183 11.632,4.8183 4.394,-0.0001 8.5251,-1.7093 11.6321,-4.8183 6.4139,-6.4127 6.4139,-16.8499 0,-23.2625 -6.4144,-6.4163 -16.8504,-6.4163 -23.2641,0l0 0zm11.632 31.4229c-5.2866,0 -10.257,-2.0575 -13.9952,-5.7965 -3.7383,-3.739 -5.7971,-8.7104 -5.7971,-13.9951 0,-5.2882 2.0588,-10.2562 5.7971,-13.9952l0 -0.0001c7.7169,-7.7183 20.2737,-7.7182 27.9905,0.0001 7.717,7.7182 7.717,20.2722 0,27.9903 -3.7382,3.739 -8.7086,5.7965 -13.9953,5.7965z"/><path d="M56.0487 57.7157c-0.4279,0 -0.8558,-0.1637 -1.182,-0.4909l-10.0437 -10.0439c-0.6526,-0.651 -0.6526,-1.7092 0,-2.3638 0.6522,-0.651 1.7106,-0.651 2.363,0l10.0442 10.0438c0.6524,0.6545 0.6524,1.7129 0,2.3639 -0.3262,0.3272 -0.754,0.4909 -1.1815,0.4909z"/><path d="M45.5999 53.7642c-0.0372,0 -0.0748,0.0001 -0.1128,-0.0035 -0.9208,-0.0626 -1.6176,-0.8563 -1.5562,-1.7789l0.4063 -6.0924c0.0558,-0.8357 0.721,-1.5005 1.5562,-1.5562l6.0931 -0.4074c0.9153,-0.0661 1.717,0.6372 1.7787,1.5562 0.0613,0.9227 -0.6354,1.7164 -1.5562,1.779l-4.6344 0.3098 -0.3088 4.6338c-0.0588,0.8842 -0.7938,1.5597 -1.6659,1.5596z"/><path d="M117.349 57.7157c-0.4274,0 -0.8554,-0.1637 -1.1815,-0.4909 -0.6524,-0.6511 -0.6524,-1.7094 0,-2.3638l10.0438 -10.044c0.6524,-0.6509 1.7108,-0.6509 2.3632,0.0001 0.6528,0.6545 0.6527,1.7128 0,2.3639l-10.0438 10.0437c-0.3263,0.3273 -0.7538,0.491 -1.1817,0.491z"/><path d="M127.797 53.7642c-0.872,0 -1.6067,-0.6753 -1.6655,-1.5596l-0.3092 -4.6338 -4.634 -0.3099c-0.9207,-0.0626 -1.6179,-0.8562 -1.5562,-1.7789 0.0613,-0.919 0.8539,-1.6223 1.7786,-1.5561l6.0932 0.4073c0.8352,0.0556 1.5004,0.7206 1.5562,1.5562l0.4063 6.0924c0.0613,0.9226 -0.6354,1.7164 -1.5563,1.7789 -0.0379,0.0035 -0.0755,0.0036 -0.1131,0.0035z"/><path d="M127.393 129.06c-0.4275,0 -0.8554,-0.1635 -1.1816,-0.4908l-10.0437 -10.0438c-0.6525,-0.6511 -0.6525,-1.7094 -0.0001,-2.3639 0.6525,-0.651 1.7107,-0.651 2.3631,0l10.0439 10.0438c0.6528,0.6545 0.6527,1.7128 0,2.3639 -0.3262,0.3272 -0.7538,0.4909 -1.1816,0.4908z"/><path d="M121.298 129.464c-0.8721,0 -1.6067,-0.6753 -1.6655,-1.5596 -0.0616,-0.919 0.6354,-1.7163 1.5562,-1.7789l4.634 -0.3064 0.3093 -4.6338c0.0612,-0.9226 0.857,-1.6258 1.7785,-1.5561 0.9209,0.0592 1.6175,0.8564 1.5562,1.7755l-0.4062 6.0959c-0.0558,0.8355 -0.7211,1.5005 -1.5563,1.5562l-6.0931 0.4039c-0.0379,0.0033 -0.0755,0.0033 -0.1131,0.0033z"/><path d="M46.0045 129.06c-0.4275,0 -0.8554,-0.1635 -1.1815,-0.4908 -0.6526,-0.6511 -0.6526,-1.7094 0,-2.3639l10.0437 -10.0438c0.6527,-0.651 1.7111,-0.651 2.3635,0 0.6524,0.6545 0.6524,1.7128 0,2.3639l-10.0442 10.0438c-0.3262,0.3272 -0.754,0.4909 -1.1815,0.4908z"/><path d="M52.0993 129.464c-0.0372,0 -0.0748,0 -0.1128,-0.0033l-6.0931 -0.4039c-0.8352,-0.0557 -1.5005,-0.7207 -1.5562,-1.5562l-0.4063 -6.0959c-0.0614,-0.9191 0.6354,-1.7163 1.5562,-1.7755 0.9153,-0.0732 1.717,0.6336 1.7787,1.5562l0.3088 4.6337 4.6344 0.3064c0.9208,0.0626 1.6175,0.8599 1.5562,1.7789 -0.0592,0.8843 -0.7938,1.5596 -1.6659,1.5596z"/><path d="M99.7812 107.05c-0.9229,0 -1.671,-0.7484 -1.671,-1.671l0 -7.9794c0,-4.2159 -3.4286,-7.6416 -7.6431,-7.6416l-7.5372 0c-4.2142,0 -7.6428,3.4257 -7.6428,7.6417l0 7.9793c0,0.9226 -0.7481,1.6711 -1.671,1.6711 -0.923,-0.0001 -1.6711,-0.7485 -1.6711,-1.6711l0.0001 -7.9794c0,-6.0576 4.9278,-10.9837 10.9847,-10.9837l7.5373 0c6.0573,0 10.9851,4.9261 10.9851,10.9838l0 7.9793c0,0.9226 -0.7481,1.6711 -1.671,1.671z"/><path d="M86.6988 73.5804c-3.5385,0 -6.4169,2.879 -6.4169,6.4162 0,3.5405 2.8784,6.4197 6.4169,6.4197 3.5382,0 6.4166,-2.8792 6.4166,-6.4197 0,-3.5372 -2.8784,-6.4162 -6.4166,-6.4162zm0 16.178c-5.3812,0 -9.7591,-4.3796 -9.7591,-9.7618 0.0001,-5.3787 4.3779,-9.7584 9.7591,-9.7584 5.3809,0 9.7587,4.3797 9.7587,9.7584 0,5.3822 -4.3779,9.7618 -9.7587,9.7618z"/><path d="M86.6985 65.5697c-5.4122,0 -10.8244,2.0575 -14.945,6.1795 -8.2404,8.2404 -8.2404,21.6508 0,29.8912 8.2408,8.2404 21.6491,8.2404 29.8899,0 8.2408,-8.2405 8.2408,-21.6508 0,-29.8912 -4.1202,-4.122 -9.5328,-6.1795 -14.9449,-6.1795zm0.0003 45.5888c-6.2682,0 -12.5365,-2.3847 -17.3085,-7.1577 -9.5434,-9.5425 -9.5434,-25.073 0,-34.6155 9.5437,-9.5426 25.0728,-9.5426 34.6162,0 9.544,9.5424 9.5439,25.073 0,34.6155 -4.7715,4.773 -11.0398,7.1577 -17.3077,7.1577z"/><path d="M80.7641 54.8992l0.0034 0 -0.0034 0zm1.6711 70.171l8.5266 0 0 -6.5833c0,-0.8042 0.5743,-1.497 1.3661,-1.6433 1.5502,-0.2854 3.089,-0.6997 4.5728,-1.2219 0.7593,-0.2681 1.601,0.0418 2.0035,0.7416l3.291 5.6989 7.3844 -4.2646 -3.2951 -5.706c-0.4022,-0.6963 -0.2511,-1.5807 0.3596,-2.1064 1.1972,-1.0234 2.3231,-2.1514 3.3474,-3.3455 0.5236,-0.6093 1.4078,-0.7624 2.104,-0.3586l5.7079 3.2934 4.2629 -7.384 -5.6994 -3.2899c-0.697,-0.4039 -1.0082,-1.2464 -0.7405,-2.0054 0.5243,-1.483 0.9358,-3.0218 1.223,-4.5711 0.1466,-0.7937 0.8376,-1.3681 1.6429,-1.3681l6.5841 0 0 -8.5259 -6.5841 0c-0.8053,0 -1.4964,-0.5745 -1.6429,-1.3646 -0.2872,-1.5494 -0.6987,-3.0881 -1.223,-4.5747 -0.2677,-0.7589 0.0435,-1.6014 0.7405,-2.0018l5.6994 -3.2933 -4.2633 -7.3842 -5.7074 3.2969c-0.6966,0.4004 -1.5806,0.2508 -2.1041,-0.362 -1.0243,-1.1942 -2.1502,-2.3186 -3.3474,-3.3456 -0.6107,-0.5222 -0.7618,-1.4065 -0.3596,-2.1028l3.2951 -5.7095 -7.3844 -4.2612 -3.2909 5.699c-0.4025,0.6964 -1.245,1.0096 -2.0032,0.7416 -1.4866,-0.5257 -3.0254,-0.9365 -4.5729,-1.2255 -0.7917,-0.1463 -1.3664,-0.8355 -1.3664,-1.6432l0 -6.5833 -8.5266 0 0 6.5833c0,0.8076 -0.5744,1.497 -1.3665,1.6432 -1.5475,0.2889 -3.0859,0.6998 -4.5729,1.2255 -0.7589,0.268 -1.6006,-0.0452 -2.0028,-0.7416l-3.2909 -5.699 -7.3847 4.2612 3.2951 5.7095c0.4025,0.6963 0.251,1.5806 -0.3593,2.1028 -1.1972,1.027 -2.3235,2.1515 -3.3474,3.3456 -0.5236,0.6127 -1.4078,0.7624 -2.1044,0.3621l-5.7075 -3.297 -4.2633 7.3842 5.6998 3.2933c0.697,0.4003 1.0079,1.2429 0.7404,2.0018 -0.5242,1.4866 -0.9357,3.0253 -1.2233,4.5747 -0.1469,0.7901 -0.8376,1.3646 -1.6429,1.3646l-6.5837 0 0 8.5259 6.5837 0c0.8053,0 1.496,0.5744 1.6429,1.3681 0.2876,1.5493 0.6991,3.0881 1.2233,4.5711 0.2675,0.759 -0.0435,1.6015 -0.7404,2.0054l-5.6998 3.2899 4.2633 7.384 5.7075 -3.2934c0.6969,-0.4039 1.5808,-0.2507 2.1044,0.3586 1.0239,1.1941 2.1502,2.3221 3.3474,3.3455 0.6103,0.5257 0.7617,1.4101 0.3593,2.1064l-3.2951 5.706 7.3847 4.2646 3.2909 -5.699c0.4022,-0.6997 1.2449,-1.0096 2.0032,-0.7415 1.4842,0.5222 3.023,0.9365 4.5728,1.2219 0.7921,0.1463 1.3661,0.8391 1.3661,1.6433l0.0001 6.5833zm10.1976 3.3421l-11.8687 0c-0.9229,0 -1.6711,-0.745 -1.6711,-1.671l0 -6.8932c-0.8021,-0.1845 -1.5987,-0.3969 -2.3851,-0.6371l-3.4473 5.9706c-0.4612,0.7973 -1.4834,1.0722 -2.2824,0.6093l-10.2792 -5.9323c-0.3836,-0.2229 -0.6639,-0.5884 -0.7784,-1.0166 -0.1149,-0.4283 -0.0546,-0.8843 0.1667,-1.2673l3.4519 -5.9775c-0.6012,-0.5606 -1.1837,-1.1419 -1.7428,-1.7442l-5.9786 3.4535c-0.384,0.2194 -0.8401,0.2786 -1.268,0.1672 -0.4282,-0.1149 -0.793,-0.3968 -1.0148,-0.7798l-5.9343 -10.2807c-0.4613,-0.7972 -0.1877,-1.8207 0.6117,-2.2803l5.9702 -3.4466c-0.2413,-0.7867 -0.4547,-1.584 -0.6378,-2.3882l-6.8952 0c-0.9226,0 -1.6708,-0.745 -1.6708,-1.671l0 -11.8681c0,-0.9226 0.7482,-1.6711 1.6708,-1.6711l6.8952 0c0.1831,-0.8007 0.3965,-1.5979 0.6378,-2.3847l-5.9702 -3.4466c-0.3837,-0.2228 -0.664,-0.5884 -0.7785,-1.0166 -0.1148,-0.4282 -0.0546,-0.8843 0.1667,-1.2672l5.9344 -10.2771c0.4613,-0.8008 1.4835,-1.0757 2.2828,-0.6127l5.9786 3.45c0.5591,-0.5988 1.1416,-1.1801 1.7428,-1.7407l-3.4519 -5.9775c-0.2213,-0.3865 -0.2816,-0.8425 -0.1667,-1.2707 0.1145,-0.4283 0.3948,-0.7938 0.7784,-1.0131l10.2792 -5.9358c0.799,-0.4596 1.8215,-0.188 2.2824,0.6127l3.4473 5.9706c0.7871,-0.2401 1.5833,-0.4559 2.3851,-0.637l0 -6.8967c0,-0.9226 0.7482,-1.6711 1.6711,-1.6711l11.8687 0c0.9229,0 1.6715,0.7485 1.6715,1.6712l0 6.8966c0.8014,0.1811 1.5979,0.3969 2.3847,0.6371l3.4473 -5.9707c0.4613,-0.8007 1.4834,-1.0722 2.2828,-0.6126l10.2788 5.9357c0.384,0.2193 0.6639,0.5849 0.7787,1.0131 0.1146,0.4281 0.0547,0.8843 -0.167,1.2708l-3.4515 5.9774c0.6012,0.5606 1.1833,1.142 1.7428,1.7407l5.9786 -3.45c0.7993,-0.4631 1.8211,-0.188 2.2828,0.6127l5.9343 10.2771c0.2214,0.3829 0.2813,0.839 0.1668,1.2672 -0.1146,0.4282 -0.3949,0.7938 -0.7789,1.0166l-5.9701 3.4466c0.2416,0.7868 0.4546,1.584 0.6381,2.3847l6.8949 0c0.9229,0 1.6711,0.7485 1.6711,1.6711l0 11.8681c0,0.926 -0.7482,1.671 -1.6712,1.671l-6.8947 0c-0.1836,0.8042 -0.3966,1.6015 -0.6383,2.3882l5.9702 3.4466c0.7994,0.4596 1.0733,1.4831 0.6121,2.2803l-5.9343 10.2807c-0.2218,0.3829 -0.5867,0.6649 -1.0149,0.7798 -0.4271,0.1148 -0.8842,0.0523 -1.2679,-0.1671l-5.9786 -3.4536c-0.5594,0.6023 -1.1416,1.1836 -1.7429,1.7442l3.4516 5.9775c0.2217,0.383 0.2816,0.839 0.167,1.2673 -0.1147,0.4282 -0.3947,0.7937 -0.7788,1.0166l-10.2787 5.9323c-0.799,0.4629 -1.8216,0.188 -2.2828,-0.6093l-3.4473 -5.9706c-0.786,0.2402 -1.5826,0.4526 -2.3847,0.6371l0 6.8932c0,0.926 -0.7486,1.671 -1.6715,1.671z"/></g></g><path d="M0 0H173.397V173.397H0z" fill="none"/></svg>