<?xml version="1.0" encoding="UTF-8" standalone="no"?><svg xmlns="http://www.w3.org/2000/svg" xmlns:xlink="http://www.w3.org/1999/xlink" fill="#545454" height="47.5" preserveAspectRatio="xMidYMid meet" version="1" viewBox="2.8 2.8 47.5 47.5" width="47.5" zoomAndPan="magnify"><g id="change1_1"><path d="M12.2366333,24.7760944c0.039978-0.3399963,0.0899658-0.6799927,0.1599731-1.0199966 c0.0200195-0.1100006,0.039978-0.2200012,0.0700073-0.3399963c0.0700073-0.340004,0.1599731-0.6900024,0.2600098-1.0300064 c0.0299683-0.0899963,0.0499878-0.1699982,0.0799561-0.2599945c0.1199951-0.3800049,0.2600098-0.75,0.4100342-1.1100006 c0.0200195-0.0500031,0.039978-0.0999985,0.0499878-0.1399994c0.3599854-0.8300018,0.789978-1.6200027,1.2999878-2.3800049 c0.0400391-0.0599976,0.0900269-0.1199951,0.1300049-0.1800003c0.1699829-0.25,0.3500366-0.4899979,0.5300293-0.7299957 c0.0199585-0.0200043,0.0299683-0.0200043,0.039978-0.0400009c0.8200073-1.0200043,1.7800293-1.9300003,2.8499756-2.7000046 c0.0200195-0.0099945,0.0300293-0.0399933,0.0500488-0.0499954c0.0700073-0.0500031,0.1300049-0.0800018,0.1900024-0.1299973 c0.0999756-0.0700073,0.2099609-0.1300049,0.3199463-0.2000046c0.2600098-0.1699982,0.5300293-0.3399963,0.8000488-0.4899979 c0.1099854-0.0599976,0.2099609-0.1200027,0.3200073-0.1800003c0.3199463-0.1600037,0.6299438-0.3199997,0.9599609-0.4599991 c0.0700073-0.0299988,0.1300049-0.0600052,0.2000122-0.090004c0.4099731-0.1699982,0.8300171-0.3299942,1.25-0.4599991 c0.039978-0.0100021,0.0800171-0.0199966,0.1099854-0.0299988c0.3800049-0.1100006,0.7600098-0.2099991,1.1400146-0.2900009 c0.1199951-0.0299988,0.2399902-0.0499954,0.3599854-0.0699997c0.3200073-0.0599976,0.6500244-0.1100006,0.9700317-0.1500015 c0.0700073-0.0099945,0.1399536-0.0199966,0.2099609-0.0299988V6.6261005c-0.1599731,0-0.3099976,0.0199966-0.4699707,0.0299988 c-0.1500244,0.0199966-0.2999878,0.0499954-0.4500122,0.0699997c-0.5,0.0599976-0.9899902,0.1199951-1.4699707,0.2200012 c-0.1900024,0.0399933-0.3600464,0.0899963-0.5400391,0.1299973c-0.4500122,0.0999985-0.8999634,0.2099991-1.3499756,0.3399963 c-0.1699829,0.0500031-0.3300171,0.1200027-0.5,0.1700058c-0.4400024,0.1499939-0.8900146,0.3099976-1.3200073,0.4899979 c-0.1500244,0.0599976-0.289978,0.1200027-0.4400024,0.1900024c-0.4400024,0.1899948-0.8800049,0.3999939-1.3099976,0.6299973 c-0.1199951,0.0699997-0.2399902,0.1399994-0.3699951,0.2099991c-0.4299927,0.2399979-0.8599854,0.5-1.2800293,0.7799988 c-0.1099854,0.0699997-0.2099609,0.1399994-0.3200073,0.2200012c-0.4199829,0.2799988-0.8199463,0.5800018-1.2099609,0.9000015 c-0.1099854,0.0899963-0.210022,0.1699982-0.3099976,0.2600021c-0.2000122,0.1699982-0.4199829,0.3299942-0.6099854,0.5099945 c-0.0500488,0.0400009-0.0800171,0.090004-0.1000366,0.140007c-1.039978,0.9599991-1.9699707,2.0199966-2.7799683,3.1699982 c-0.0300293,0.0299988-0.0700073,0.0499954-0.0900269,0.0800018c-0.3900146,0.5699997-0.7299805,1.1499939-1.0599976,1.7399979 c-0.039978,0.0800018-0.0800171,0.1500015-0.1199951,0.2200012c-0.2600098,0.4899979-0.4899902,0.9799957-0.710022,1.4799957 c-0.0299683,0.0699997-0.0700073,0.1399994-0.0999756,0.2200012c-0.4700317,1.1299973-0.8400269,2.3000031-1.0900269,3.5 c-0.0299683,0.1500015-0.0599976,0.2900009-0.0799561,0.4300003c-0.0900269,0.4700012-0.1600342,0.9300003-0.2200317,1.4000015 c-0.0200195,0.1699982-0.039978,0.3300018-0.0599976,0.5c-0.0100098,0.1100006-0.0200195,0.2299957-0.0200195,0.3399963h5.5900269 C12.2166138,24.926096,12.2266235,24.8560963,12.2366333,24.7760944"/><path d="M12.2068481,27.9962978H6.6168213c0,0.1600037,0.0200195,0.3100014,0.0299683,0.4700012 c0,0.0299988,0.0100098,0.0600014,0.0100098,0.0900002c0.0599976,0.6399994,0.1600342,1.2700005,0.2900391,1.9000015 c0.0100098,0.0299988,0.0100098,0.0599976,0.0199585,0.0900002c0.1199951,0.6199989,0.2800293,1.2299995,0.4689941,1.8299961 c0.0110474,0.0299988,0.0210571,0.0600052,0.0310059,0.090004c0.1799927,0.5999985,0.4000244,1.1899948,0.6500244,1.7699966 c0,0.0100021,0.0100098,0.0299988,0.0200195,0.0400009c0.0899658,0.2200012,0.1799927,0.4300003,0.2799683,0.6500015 c0.0100098,0.0299988,0.0400391,0.0500031,0.0599976,0.0699997c0.6199951,1.3000031,1.3699951,2.5199966,2.2399902,3.6500015 c0.0200195,0.0499954,0.0400391,0.0999985,0.0700073,0.1399994c2.9700317,3.7900009,7.1000366,6.3099976,11.6900024,7.2399979 c0.0100098,0,0.0200195,0.0100021,0.0400391,0.0100021c0.6299438,0.1299973,1.2599487,0.2299957,1.9099731,0.2900009 c0.039978,0.0099945,0.0900269,0.0099945,0.1300049,0.0099945c0.1500244,0.0100021,0.289978,0.0300064,0.4400024,0.0300064 v-5.5800018c-2.9299927-0.3100052-5.7000122-1.5100021-7.9400024-3.4599991 C14.296814,34.9263,12.5768433,31.586298,12.2068481,27.9962978"/><path d="M29.1765747,12.3961964c0.1199951,0.0200043,0.2399902,0.0400009,0.3599854,0.0700073 c0.3900146,0.0799942,0.7699585,0.1799927,1.1400146,0.2899933c0.039978,0.0100021,0.0799561,0.0200043,0.1099854,0.0300064 c0.4299927,0.1299973,0.8399658,0.2899933,1.25,0.4599991c0.0700073,0.0299988,0.1400146,0.0599976,0.2099609,0.0899963 c0.3200073,0.1399994,0.6400146,0.3000031,0.9500122,0.4599991c0.1099854,0.0600052,0.2200317,0.1200027,0.3300171,0.1800003 c0.2700195,0.1500015,0.539978,0.3199997,0.7999878,0.4900055c0.1000366,0.0699997,0.210022,0.1299973,0.3099976,0.1999969 c0.0599976,0.0500031,0.1300049,0.0800018,0.1900024,0.1299973c0.0200195,0.0100021,0.0300293,0.0400009,0.0499878,0.0500031 c1.0700073,0.7699966,2.0300293,1.6800003,2.8500366,2.6999969c0.0100098,0.0200043,0.0299683,0.0200043,0.039978,0.0400009 c0.1900024,0.2399979,0.3699951,0.4899979,0.5499878,0.75c0.0300293,0.0500031,0.0800171,0.0999985,0.1100464,0.1600037 c0.5199585,0.7599945,0.9499512,1.5499954,1.2999878,2.3799973c0.0199585,0.0400009,0.0299683,0.0899963,0.0499878,0.1299973 c0.1599731,0.3700027,0.289978,0.7400055,0.4099731,1.1200027c0.0300293,0.0899963,0.0500488,0.1699982,0.0800171,0.2600021 c0.0999756,0.3399963,0.1900024,0.6800003,0.2700195,1.0299988c0.0199585,0.1200027,0.0499878,0.2299957,0.0700073,0.3399963 c0.0599976,0.340004,0.1099854,0.6800003,0.1499634,1.0200043c0.0100098,0.0800018,0.0300293,0.1500015,0.0300293,0.2200012 h5.5899658c0-0.1100006-0.0100098-0.2300034-0.0199585-0.340004c-0.0200195-0.1699982-0.0400391-0.3300018-0.0599976-0.5 c-0.0500488-0.4700012-0.1199951-0.9400024-0.210022-1.4000015c-0.0300293-0.1399994-0.0499878-0.2799988-0.0800171-0.4199982 c-0.2600098-1.2099991-0.6300049-2.3799973-1.0999756-3.5199966c-0.0300293-0.0699997-0.0599976-0.1399994-0.0900269-0.2099991 c-0.2199707-0.5-0.4599609-0.9900055-0.7199707-1.4800034c-0.0400391-0.0699997-0.0800171-0.1399994-0.1199951-0.2200012 c-0.3200073-0.5899963-0.6700439-1.1699982-1.0599976-1.7399979c-0.0200195-0.0299988-0.0500488-0.0500031-0.0800171-0.0800018 c-0.8099976-1.1500015-1.75-2.2099991-2.7800293-3.1699982c-0.0299683-0.0500031-0.0599976-0.0999985-0.0999756-0.1399994 c-0.2000122-0.1800003-0.4099731-0.340004-0.6199951-0.5100021c-0.0999756-0.0899963-0.2000122-0.1699982-0.2999878-0.2600021 c-0.4000244-0.3199997-0.7999878-0.6199951-1.210022-0.8999939c-0.1099854-0.0800018-0.2199707-0.1500015-0.3300171-0.2200012 c-0.4199829-0.2799988-0.8399658-0.5400009-1.2799683-0.7799988c-0.1199951-0.0699997-0.2399902-0.1399994-0.3699951-0.2100067 c-0.4299927-0.2299957-0.8699951-0.4399948-1.3099976-0.6299973c-0.1500244-0.0699997-0.2900391-0.1299973-0.4400024-0.1900024 c-0.4299927-0.1800003-0.8699951-0.3399963-1.3200073-0.4899979c-0.1699829-0.0499954-0.3300171-0.1199951-0.5-0.1699982 c-0.4400024-0.1299973-0.8900146-0.2399979-1.3499756-0.340004c-0.1800537-0.0399933-0.3500366-0.0899963-0.5300293-0.1299973 c-0.4899902-0.0999985-0.9799805-0.159996-1.4699707-0.2200012c-0.1500244-0.0199966-0.3000488-0.0499954-0.460022-0.0699997 c-0.1600342-0.0100021-0.3099976-0.0299988-0.4700317-0.0299988v5.590004 c0.0700073,0.0099945,0.1400146,0.0199966,0.210022,0.0299988C28.5365601,12.2862034,28.8565674,12.3361988,29.1765747,12.3961964"/><path d="M35.9465332,37.3263931c-2.25,1.9500046-5.0200195,3.1500015-7.9500122,3.4600067v5.5799942 c0.1499634,0,0.289978-0.0199966,0.4400024-0.0299988c0.0499878,0,0.0899658,0,0.1300049-0.0100021 c0.6499634-0.0599976,1.289978-0.159996,1.9199829-0.2899933c0.0100098,0,0.0200195-0.0100021,0.039978-0.0100021 c4.5900269-0.9300003,8.7200317-3.4500046,11.6799927-7.2399979c0.0400391-0.0400009,0.0599976-0.090004,0.0700073-0.1399994 c0.8699951-1.1300049,1.6199951-2.3500061,2.2399902-3.640007c0.0200195-0.0299988,0.0500488-0.0499954,0.0700073-0.0799942 c0.1000366-0.2200012,0.1900024-0.4400024,0.2800293-0.6600037c0.0100098-0.0100021,0.0100098-0.0199966,0.0199585-0.0299988 c0.2400513-0.5800018,0.460022-1.1800003,0.6500244-1.7799988c0.0100098-0.0200043,0.0200195-0.0500031,0.0200195-0.0800018 c0.1900024-0.6000004,0.3499756-1.210001,0.4799805-1.8299999c0-0.0299988,0.0100098-0.0600014,0.0100098-0.0900002 c0.1300049-0.6199989,0.2299805-1.2599983,0.2999878-1.9000015v-0.079998 c0.0200195-0.1599998,0.0300293-0.3199997,0.039978-0.4799995h-5.5899658 C40.4265137,31.5863972,38.6965332,34.9263992,35.9465332,37.3263931"/><path d="M26.4998779,16.5807972c0.2759399,0,0.5-0.223999,0.5-0.5V3.2638035c0-0.2770004-0.2240601-0.5-0.5-0.5 c-0.276001,0-0.5,0.2229996-0.5,0.5v12.8169937C25.9998779,16.3567982,26.223877,16.5807972,26.4998779,16.5807972"/><path d="M25.9968872,39.8561935v9.8800049c0,0.2699966,0.2289429,0.5,0.5,0.5c0.2799683,0,0.5-0.2300034,0.5-0.5v-9.8800049 c-0.1600342,0.0100021-0.3300171,0.0100021-0.5,0.0100021C26.3268433,39.8661957,26.1568604,39.8661957,25.9968872,39.8561935"/><path d="M16.5828857,26.497797c0-0.2759972-0.2240601-0.5-0.5-0.5H3.2658691c-0.2770386,0-0.5,0.2240028-0.5,0.5 c0,0.276001,0.2229614,0.5,0.5,0.5h12.8170166C16.3588257,26.997797,16.5828857,26.773798,16.5828857,26.497797"/><path d="M49.7341309,25.997797H36.9171143c-0.2770386,0-0.5,0.2240028-0.5,0.5c0,0.276001,0.2229614,0.5,0.5,0.5h12.8170166 c0.2759399,0,0.5-0.223999,0.5-0.5C50.2341309,26.2217999,50.0100708,25.997797,49.7341309,25.997797"/><path d="M26.4998779,30.0177975c2.9019775,0,5.2629395-2.3610001,5.2629395-5.2639961 c0-2.9020004-2.3609619-5.2630005-5.2629395-5.2630005c-2.9020386,0-5.2640381,2.3610001-5.2640381,5.2630005 C21.2358398,27.6567974,23.5978394,30.0177975,26.4998779,30.0177975"/><path d="M17.4763794,34.966095c0.289978,0.3000031,0.5799561,0.5800018,0.8899536,0.8500061 c2.2600098,1.9599991,5.1500244,3.0499954,8.1310425,3.0499954c2.9889526,0,5.8689575-1.0899963,8.1289673-3.0499954 c0.3099976-0.2700043,0.6099854-0.5600052,0.8900146-0.8600006c-0.4799805-1.1500015-1.1900024-2.1900024-2.0800171-3.0799999 c-0.9199829-0.9300003-2.0100098-1.6500015-3.1799927-2.1200027c-1.039978,0.7900009-2.3499756,1.2600021-3.7589722,1.2600021 c-1.4210205,0-2.7210083-0.4700012-3.7709961-1.2700005C20.3763428,30.7160969,18.4763794,32.5860977,17.4763794,34.966095"/></g></svg>